<?xml version="1.0" encoding="UTF-8" standalone="no"?>
<svg width="1440" height="400" viewBox="0 0 1440 400" xmlns="http://www.w3.org/2000/svg">
  <!-- Background layer with subtle waves -->
  <path fill="#7c5cff" fill-opacity="0.04" d="M0,160 C120,100 240,180 360,160 C480,140 600,80 720,100 C840,120 960,200 1080,180 C1200,160 1320,100 1440,120 L1440,400 L0,400 Z"></path>
  
  <!-- Medium soundwave layers -->
  <path fill="#4ecdc4" fill-opacity="0.06" d="M0,200 C60,170 120,230 180,200 C240,170 300,130 360,150 C420,170 480,230 540,200 C600,170 660,130 720,150 C780,170 840,230 900,200 C960,170 1020,130 1080,150 C1140,170 1200,230 1260,200 C1320,170 1380,130 1440,150 L1440,400 L0,400 Z"></path>
  
  <path fill="#7c5cff" fill-opacity="0.08" d="M0,220 C40,190 80,250 120,220 C160,190 200,160 240,180 C280,200 320,250 360,220 C400,190 440,160 480,180 C520,200 560,250 600,220 C640,190 680,160 720,180 C760,200 800,250 840,220 C880,190 920,160 960,180 C1000,200 1040,250 1080,220 C1120,190 1160,160 1200,180 C1240,200 1280,250 1320,220 C1360,190 1400,160 1440,180 L1440,400 L0,400 Z"></path>
  
  <!-- Sharper soundwave layers -->
  <path fill="#4ecdc4" fill-opacity="0.1" d="M0,240 C30,220 60,260 90,240 C120,220 150,200 180,210 C210,220 240,260 270,240 C300,220 330,200 360,210 C390,220 420,260 450,240 C480,220 510,200 540,210 C570,220 600,260 630,240 C660,220 690,200 720,210 C750,220 780,260 810,240 C840,220 870,200 900,210 C930,220 960,260 990,240 C1020,220 1050,200 1080,210 C1110,220 1140,260 1170,240 C1200,220 1230,200 1260,210 C1290,220 1320,260 1350,240 C1380,220 1410,200 1440,210 L1440,400 L0,400 Z"></path>
  
  <path fill="#7c5cff" fill-opacity="0.12" d="M0,260 C24,245 48,275 72,260 C96,245 120,230 144,240 C168,250 192,275 216,260 C240,245 264,230 288,240 C312,250 336,275 360,260 C384,245 408,230 432,240 C456,250 480,275 504,260 C528,245 552,230 576,240 C600,250 624,275 648,260 C672,245 696,230 720,240 C744,250 768,275 792,260 C816,245 840,230 864,240 C888,250 912,275 936,260 C960,245 984,230 1008,240 C1032,250 1056,275 1080,260 C1104,245 1128,230 1152,240 C1176,250 1200,275 1224,260 C1248,245 1272,230 1296,240 C1320,250 1344,275 1368,260 C1392,245 1416,230 1440,240 L1440,400 L0,400 Z"></path>
  
  <!-- Detailed soundwave layers -->
  <path fill="#4ecdc4" fill-opacity="0.14" d="M0,280 C20,270 40,290 60,280 C80,270 100,260 120,265 C140,270 160,290 180,280 C200,270 220,260 240,265 C260,270 280,290 300,280 C320,270 340,260 360,265 C380,270 400,290 420,280 C440,270 460,260 480,265 C500,270 520,290 540,280 C560,270 580,260 600,265 C620,270 640,290 660,280 C680,270 700,260 720,265 C740,270 760,290 780,280 C800,270 820,260 840,265 C860,270 880,290 900,280 C920,270 940,260 960,265 C980,270 1000,290 1020,280 C1040,270 1060,260 1080,265 C1100,270 1120,290 1140,280 C1160,270 1180,260 1200,265 C1220,270 1240,290 1260,280 C1280,270 1300,260 1320,265 C1340,270 1360,290 1380,280 C1400,270 1420,260 1440,265 L1440,400 L0,400 Z"></path>
  
  <path fill="#7c5cff" fill-opacity="0.16" d="M0,300 C15,290 30,310 45,300 C60,290 75,280 90,285 C105,290 120,310 135,300 C150,290 165,280 180,285 C195,290 210,310 225,300 C240,290 255,280 270,285 C285,290 300,310 315,300 C330,290 345,280 360,285 C375,290 390,310 405,300 C420,290 435,280 450,285 C465,290 480,310 495,300 C510,290 525,280 540,285 C555,290 570,310 585,300 C600,290 615,280 630,285 C645,290 660,310 675,300 C690,290 705,280 720,285 C735,290 750,310 765,300 C780,290 795,280 810,285 C825,290 840,310 855,300 C870,290 885,280 900,285 C915,290 930,310 945,300 C960,290 975,280 990,285 C1005,290 1020,310 1035,300 C1050,290 1065,280 1080,285 C1095,290 1110,310 1125,300 C1140,290 1155,280 1170,285 C1185,290 1200,310 1215,300 C1230,290 1245,280 1260,285 C1275,290 1290,310 1305,300 C1320,290 1335,280 1350,285 C1365,290 1380,310 1395,300 C1410,290 1425,280 1440,285 L1440,400 L0,400 Z"></path>
  
  <!-- Fine detail soundwave layers -->
  <path fill="#4ecdc4" fill-opacity="0.18" d="M0,320 C12,312 24,328 36,320 C48,312 60,304 72,308 C84,312 96,328 108,320 C120,312 132,304 144,308 C156,312 168,328 180,320 C192,312 204,304 216,308 C228,312 240,328 252,320 C264,312 276,304 288,308 C300,312 312,328 324,320 C336,312 348,304 360,308 C372,312 384,328 396,320 C408,312 420,304 432,308 C444,312 456,328 468,320 C480,312 492,304 504,308 C516,312 528,328 540,320 C552,312 564,304 576,308 C588,312 600,328 612,320 C624,312 636,304 648,308 C660,312 672,328 684,320 C696,312 708,304 720,308 C732,312 744,328 756,320 C768,312 780,304 792,308 C804,312 816,328 828,320 C840,312 852,304 864,308 C876,312 888,328 900,320 C912,312 924,304 936,308 C948,312 960,328 972,320 C984,312 996,304 1008,308 C1020,312 1032,328 1044,320 C1056,312 1068,304 1080,308 C1092,312 1104,328 1116,320 C1128,312 1140,304 1152,308 C1164,312 1176,328 1188,320 C1200,312 1212,304 1224,308 C1236,312 1248,328 1260,320 C1272,312 1284,304 1296,308 C1308,312 1320,328 1332,320 C1344,312 1356,304 1368,308 C1380,312 1392,328 1404,320 C1416,312 1428,304 1440,308 L1440,400 L0,400 Z"></path>
  
  <path fill="#7c5cff" fill-opacity="0.2" d="M0,340 C10,334 20,346 30,340 C40,334 50,328 60,331 C70,334 80,346 90,340 C100,334 110,328 120,331 C130,334 140,346 150,340 C160,334 170,328 180,331 C190,334 200,346 210,340 C220,334 230,328 240,331 C250,334 260,346 270,340 C280,334 290,328 300,331 C310,334 320,346 330,340 C340,334 350,328 360,331 C370,334 380,346 390,340 C400,334 410,328 420,331 C430,334 440,346 450,340 C460,334 470,328 480,331 C490,334 500,346 510,340 C520,334 530,328 540,331 C550,334 560,346 570,340 C580,334 590,328 600,331 C610,334 620,346 630,340 C640,334 650,328 660,331 C670,334 680,346 690,340 C700,334 710,328 720,331 C730,334 740,346 750,340 C760,334 770,328 780,331 C790,334 800,346 810,340 C820,334 830,328 840,331 C850,334 860,346 870,340 C880,334 890,328 900,331 C910,334 920,346 930,340 C940,334 950,328 960,331 C970,334 980,346 990,340 C1000,334 1010,328 1020,331 C1030,334 1040,346 1050,340 C1060,334 1070,328 1080,331 C1090,334 1100,346 1110,340 C1120,334 1130,328 1140,331 C1150,334 1160,346 1170,340 C1180,334 1190,328 1200,331 C1210,334 1220,346 1230,340 C1240,334 1250,328 1260,331 C1270,334 1280,346 1290,340 C1300,334 1310,328 1320,331 C1330,334 1340,346 1350,340 C1360,334 1370,328 1380,331 C1390,334 1400,346 1410,340 C1420,334 1430,328 1440,331 L1440,400 L0,400 Z"></path>
  
  <!-- Finest detail soundwave layer -->
  <path fill="#4ecdc4" fill-opacity="0.22" d="M0,360 C8,356 16,364 24,360 C32,356 40,352 48,354 C56,356 64,364 72,360 C80,356 88,352 96,354 C104,356 112,364 120,360 C128,356 136,352 144,354 C152,356 160,364 168,360 C176,356 184,352 192,354 C200,356 208,364 216,360 C224,356 232,352 240,354 C248,356 256,364 264,360 C272,356 280,352 288,354 C296,356 304,364 312,360 C320,356 328,352 336,354 C344,356 352,364 360,360 C368,356 376,352 384,354 C392,356 400,364 408,360 C416,356 424,352 432,354 C440,356 448,364 456,360 C464,356 472,352 480,354 C488,356 496,364 504,360 C512,356 520,352 528,354 C536,356 544,364 552,360 C560,356 568,352 576,354 C584,356 592,364 600,360 C608,356 616,352 624,354 C632,356 640,364 648,360 C656,356 664,352 672,354 C680,356 688,364 696,360 C704,356 712,352 720,354 C728,356 736,364 744,360 C752,356 760,352 768,354 C776,356 784,364 792,360 C800,356 808,352 816,354 C824,356 832,364 840,360 C848,356 856,352 864,354 C872,356 880,364 888,360 C896,356 904,352 912,354 C920,356 928,364 936,360 C944,356 952,352 960,354 C968,356 976,364 984,360 C992,356 1000,352 1008,354 C1016,356 1024,364 1032,360 C1040,356 1048,352 1056,354 C1064,356 1072,364 1080,360 C1088,356 1096,352 1104,354 C1112,356 1120,364 1128,360 C1136,356 1144,352 1152,354 C1160,356 1168,364 1176,360 C1184,356 1192,352 1200,354 C1208,356 1216,364 1224,360 C1232,356 1240,352 1248,354 C1256,356 1264,364 1272,360 C1280,356 1288,352 1296,354 C1304,356 1312,364 1320,360 C1328,356 1336,352 1344,354 C1352,356 1360,364 1368,360 C1376,356 1384,352 1392,354 C1400,356 1408,364 1416,360 C1424,356 1432,352 1440,354 L1440,400 L0,400 Z"></path>
</svg>
